<svg id="Capa_1" enable-background="new 0 0 509.367 509.367" height="512" viewBox="0 0 509.367 509.367" width="512" xmlns="http://www.w3.org/2000/svg"><g><path d="m429.371 134.3c-2.986-53.351-39.634-98.547-91.193-112.464-2.207-.596-4.565-.152-6.405 1.204s-2.961 3.478-3.045 5.762c-.228 6.229-1.042 12.447-2.417 18.482-.212.93-.464 1.843-.752 2.74-.002.005-.003.011-.005.016-4.451 13.827-17.747 23.593-32.656 23.593h-.219c-2.342-6.667-6.538-12.465-11.969-16.777v-31c0-14.257-11.599-25.856-25.856-25.856s-25.856 11.599-25.856 25.856v30.47h.332c-5.759 4.361-10.204 10.365-12.643 17.307h-.219c-13.664 0-25.999-7.977-31.425-20.322v-.001c-.849-1.93-1.518-3.958-1.989-6.025-1.375-6.036-2.188-12.254-2.416-18.482-.084-2.284-1.205-4.406-3.045-5.762-1.84-1.357-4.197-1.8-6.405-1.204-32.993 8.906-61.095 31.368-77.101 61.627-1.937 3.661-.539 8.2 3.123 10.136 1.118.591 2.318.872 3.5.872 2.69 0 5.291-1.451 6.636-3.995 12.64-23.896 33.862-42.259 59.069-51.416.434 3.56 1.042 7.094 1.804 10.58-23.944 21.729-38.609 52.312-40.42 84.659-2.399 42.86 16.528 82.621 50.721 106.905.025 1.928.082 3.861.198 5.796-23.083-5.362-43.794-18.153-59.073-36.656-17.443-21.125-26.206-47.834-24.674-75.207.35-6.256 1.237-12.497 2.638-18.549.934-4.035-1.581-8.064-5.617-8.997-4.036-.934-8.063 1.581-8.998 5.616-1.593 6.886-2.602 13.982-3 21.092-1.744 31.153 8.229 61.552 28.084 85.596 19.74 23.905 47.459 39.434 78.052 43.724.348.049.696.073 1.042.073 1.976 0 3.89-.782 5.307-2.2 1.665-1.667 2.449-4.02 2.119-6.352-.731-5.162-1.102-10.401-1.102-15.571 0-.547.023-1.092.031-1.638l.011-.47c0-.015-.002-.029-.001-.044.206-10.661 1.917-21.171 5.136-31.271.679-2.132.371-4.456-.84-6.338l-.33-.517c-6.465-10.195-7.128-22.274-1.821-33.139 4.37-8.945 12.087-15.386 21.293-18.041 2.443 6.476 6.652 12.09 12.035 16.259-.003.084-.013.167-.013.251v318.889c0 14.257 11.599 25.856 25.856 25.856s25.856-11.599 25.856-25.856v-14.795c0-4.142-3.358-7.5-7.5-7.5s-7.5 3.358-7.5 7.5v14.795c0 5.986-4.87 10.856-10.856 10.856s-10.856-4.87-10.856-10.856v-98.465l21.712-19.344v73.014c0 4.142 3.358 7.5 7.5 7.5s7.5-3.358 7.5-7.5v-274.094c0-.172-.014-.34-.026-.51 5.225-4.141 9.312-9.655 11.706-15.997 9.681 2.798 17.727 9.83 21.903 19.35 4.612 10.517 3.727 22.117-2.426 31.82l-.334.523c-1.211 1.881-1.52 4.206-.84 6.338 3.208 10.066 4.918 20.54 5.134 31.164 0 .033.002.066.002.1.014.72.041 1.438.041 2.159 0 5.17-.371 10.41-1.102 15.571-.331 2.332.454 4.685 2.119 6.352 1.417 1.419 3.33 2.2 5.307 2.2.346 0 .694-.024 1.042-.073 30.593-4.291 58.313-19.819 78.052-43.724 19.854-24.043 29.828-54.442 28.084-85.595zm-171.653 22.822h-6.069c-12.158 0-22.048-9.891-22.048-22.048v-49.2c0-12.157 9.891-22.048 22.048-22.048h6.069c12.158 0 22.049 9.891 22.049 22.048v49.2c0 12.158-9.891 22.048-22.049 22.048zm-13.72-131.266c0-5.986 4.87-10.856 10.856-10.856s10.856 4.87 10.856 10.856v23.847c-2.576-.569-5.248-.878-7.992-.878h-6.069c-2.622 0-5.181.278-7.65.799v-23.768zm-61.793 133.713c-7.115 14.566-6.633 31.298 1.179 45.314-1.716 5.95-2.971 12.016-3.784 18.154-25.126-21.518-38.744-53.562-36.822-87.899 1.507-26.913 12.547-51.559 31.327-70.4 8.469 14.161 23.681 23.231 40.496 23.858v5.98h-7.722c-4.142 0-7.5 3.358-7.5 7.5s3.358 7.5 7.5 7.5h7.722v5.794h-7.722c-4.142 0-7.5 3.358-7.5 7.5s3.358 7.5 7.5 7.5h7.722v2.858c-14.038 3.472-25.853 12.946-32.396 26.341zm61.793 139.024v-31.962l17.937 15.981zm21.712.747v32.908l-18.468-16.454zm-21.712 33.653 17.937 15.981-17.937 15.981zm21.712-67.108-21.712-19.344v-75.218c2.47.521 5.028.799 7.65.799h6.069c2.744 0 5.416-.309 7.992-.878v94.641zm29.057-132.674v-2.84h7.722c4.142 0 7.5-3.358 7.5-7.5s-3.358-7.5-7.5-7.5h-7.722v-5.794h7.722c4.142 0 7.5-3.358 7.5-7.5s-3.358-7.5-7.5-7.5h-7.722v-5.984c17.128-.624 32.178-9.791 40.522-23.829 18.764 18.837 29.795 43.474 31.301 70.375 1.067 19.063-2.897 38.088-11.466 55.018-6.288 12.424-14.943 23.546-25.376 32.712-.814-6.079-2.062-12.087-3.762-17.981 7.54-13.473 8.314-29.152 2.045-43.446-6.233-14.209-18.528-24.578-33.264-28.231zm94.953 77.135c-15.279 18.503-35.991 31.294-59.073 36.656.116-1.94.172-3.877.198-5.81 15.835-11.54 28.809-26.768 37.662-44.261 9.758-19.28 14.273-40.938 13.059-62.63-1.811-32.347-16.476-62.93-40.42-84.659.763-3.489 1.371-7.025 1.805-10.589 40.69 14.698 68.99 52.26 71.443 96.087 1.532 27.372-7.23 54.081-24.674 75.206z"/></g></svg>