<svg height="512pt" viewBox="-24 0 512 512" width="512pt" xmlns="http://www.w3.org/2000/svg"><path d="m345.199219 413.667969c4.328125-53.035157 6.449219-107.582031 6.300781-162.132813l-15 .042969c.148438 54.128906-1.957031 108.253906-6.253906 160.867187zm0 0"/><path d="m237.144531 320.375-14.992187.488281c1.191406 36.582031 3.421875 73.144531 6.636718 108.671875l14.9375-1.351562c-3.1875-35.242188-5.402343-71.511719-6.582031-107.808594zm0 0"/><path d="m167.007812 469.003906h15v15h-15zm0 0"/><path d="m197.007812 469.003906h15v15h-15zm0 0"/><path d="m227.007812 469.003906h15v15h-15zm0 0"/><path d="m257.007812 469.003906h15v15h-15zm0 0"/><path d="m287.007812 469.003906h15v15h-15zm0 0"/><path d="m441.292969 83.257812-14.492188 3.859376c30.957031 116.226562 29.550781 238.457031-4.019531 353.890624h-44.117188c20.234376-120.691406 20.234376-247.632812 0-368.320312h55.734376v-22.777344c0-11.199218-4.378907-21.707031-12.335938-29.585937-7.988281-7.914063-18.628906-12.226563-29.882812-12.105469l-.449219.003906c-7.125 0-10.339844-1.503906-14.410157-3.40625-4.828124-2.257812-10.300781-4.816406-20.757812-4.816406-10.460938 0-15.933594 2.558594-20.761719 4.816406-4.066406 1.902344-7.28125 3.40625-14.40625 3.40625-7.121093 0-10.335937-1.503906-14.402343-3.40625-4.828126-2.257812-10.300782-4.816406-20.757813-4.816406-10.460937 0-15.933594 2.558594-20.761719 4.816406-4.066406 1.902344-7.28125 3.40625-14.402344 3.40625-7.125 0-10.335937-1.503906-14.40625-3.40625-4.828124-2.257812-10.300781-4.816406-20.757812-4.816406s-15.929688 2.558594-20.757812 4.816406c-4.066407 1.902344-7.277344 3.40625-14.402344 3.40625l-.449219-.003906c-11.265625-.109375-21.882813 4.195312-29.875 12.109375-7.953125 7.878906-12.332031 18.382813-12.332031 29.582031v22.777344h29.007812c4.097656 0 7.433594 3.332031 7.433594 7.433594v164.746094c0 17.394531 14.050781 32.464843 31.839844 32.464843.195312 0 .390625-.003906.589844-.007812 17.214843-.320313 31.21875-14.59375 31.21875-31.816407v-165.386718c0-4.101563 3.335937-7.433594 7.433593-7.433594 4.097657 0 7.433594 3.332031 7.433594 7.433594v95.152344c0 16.792968 13.664063 30.453124 30.453125 30.453124 16.792969 0 30.453125-13.660156 30.453125-30.453124v-95.152344c0-4.101563 3.335937-7.433594 7.4375-7.433594h42.0625c20.523437 120.625 20.523437 247.6875 0 368.320312h-69.714844v-222.78125h-15v222.78125h-69.714843c-8.636719-50.796874-13.679688-103.289062-14.996094-156.136718l-14.996094.375c1.3125 52.6875 6.28125 105.042968 14.78125 155.761718h-44.101562c-33.570313-115.421874-34.976563-237.664062-4.019532-353.890624l-14.496094-3.859376c-32.097656 120.511719-30.175781 247.347657 5.558594 366.839844v61.902344h298.96875v-61.847656c35.746094-119.5 37.675782-246.359375 5.570313-366.894532zm-142.339844-3.136718v95.152344c0 8.523437-6.933594 15.453124-15.453125 15.453124s-15.453125-6.929687-15.453125-15.453124v-95.152344c0-12.371094-10.0625-22.433594-22.433594-22.433594-12.371093 0-22.433593 10.0625-22.433593 22.433594v165.386718c0 9.105469-7.402344 16.648438-16.5 16.820313-9.402344.199219-17.148438-8.019531-17.148438-17.460937v-164.746094c0-12.371094-10.0625-22.433594-22.433594-22.433594h-14.007812v-7.777344c0-7.164062 2.800781-13.886718 7.890625-18.925781 5.125-5.074219 11.914062-7.824219 19.160156-7.765625l.605469.003906c10.457031 0 15.929687-2.5625 20.757812-4.816406 4.066406-1.902344 7.28125-3.40625 14.402344-3.40625 7.125 0 10.335938 1.503906 14.40625 3.40625 4.828125 2.257812 10.300781 4.816406 20.757812 4.816406 10.457032 0 15.929688-2.558594 20.757813-4.816406 4.066406-1.902344 7.28125-3.40625 14.40625-3.40625 7.121094 0 10.335937 1.503906 14.402344 3.40625 4.828125 2.257812 10.300781 4.816406 20.757812 4.816406 10.460938 0 15.933594-2.558594 20.761719-4.816406 4.066406-1.902344 7.28125-3.40625 14.40625-3.40625s10.335938 1.503906 14.40625 3.40625c4.828125 2.257812 10.300781 4.816406 20.761719 4.816406l.605469-.003906c7.25-.058594 14.046874 2.6875 19.171874 7.761719 5.089844 5.039062 7.890626 11.761719 7.890626 18.929687v7.777344h-98.011719c-12.371094 0-22.433594 10.0625-22.433594 22.433594zm121.765625 416.878906h-268.964844v-40.992188h268.964844zm0 0"/><path d="m15 341.710938v-169.726563l47.515625-47.519531h47.847656v-15h-54.058593l-56.304688 56.304687v182.15625l56.304688 56.304688h54.058593v-15h-47.847656zm0 0"/><path d="m77.1875 166.601562h25.769531v-15h-31.984375l-31.621094 31.621094v147.25l31.621094 31.621094h31.980469v-15h-25.765625l-22.835938-22.835938v-134.820312zm0 0"/><path d="m416.75 425.457031-14.484375-3.898437c13.785156-51.226563 21.113281-103.980469 21.777344-156.796875l14.996093.1875c-.679687 54.070312-8.179687 108.070312-22.289062 160.507812zm7.339844-170.578125c-.015625-4.917968-.089844-9.90625-.21875-14.820312l14.992187-.398438c.132813 5.03125.210938 10.136719.226563 15.171875zm-.558594-24.699218c-.210938-4.941407-.480469-9.917969-.800781-14.800782l14.964843-.988281c.332032 5 .605469 10.097656.820313 15.15625zm0 0"/><path d="m336.0625 215.054688c-.457031-21.390626-1.277344-42.953126-2.433594-64.09375l14.980469-.816407c1.164063 21.300781 1.988281 43.035157 2.449219 64.589844zm-3-74.035157c-.300781-4.976562-.617188-9.949219-.957031-14.910156l14.964843-1.015625c.34375 5 .664063 10.007812.964844 15.027344zm-1.65625-24.84375c-.367188-4.972656-.75-9.9375-1.15625-14.894531l14.949219-1.21875c.410156 4.996094.796875 10 1.164062 15.015625zm0 0"/><path d="m392.339844 47.6875h-32.832032v-15h32.832032zm-42.832032 0h-15v-15h15zm-25 0h-15v-15h15zm0 0"/><path d="m406.507812 484.003906h-39.644531v-15h39.644531zm-49.644531 0h-15v-15h15zm-25 0h-15v-15h15zm0 0"/></svg>