<svg id="Capa_1" enable-background="new 0 0 512 512" height="512" viewBox="0 0 512 512" width="512" xmlns="http://www.w3.org/2000/svg"><path d="m449.512 0h-351.303c-23.84 0-43.236 19.395-43.236 43.236v425.524c0 23.842 19.397 43.24 43.24 43.24h351.299c4.15 0 7.515-3.365 7.515-7.515v-496.97c0-4.15-3.365-7.515-7.515-7.515zm-37.922 440.55h30.407v56.421h-30.407zm-313.381-425.52h12.137v266.218c0 4.15 3.365 7.515 7.515 7.515s7.515-3.365 7.515-7.515v-266.218h316.622v410.491h-316.623v-114.215c0-4.15-3.365-7.515-7.515-7.515s-7.515 3.365-7.515 7.515v114.214h-12.132c-10.774 0-20.631 3.97-28.21 10.512v-392.796c0-15.553 12.653-28.206 28.206-28.206zm-28.206 453.73c0-15.555 12.655-28.21 28.21-28.21h298.348v20.695h-62.386c-4.15 0-7.515 3.365-7.515 7.515s3.365 7.515 7.515 7.515h62.386v20.696h-298.348c-15.555-.001-28.21-12.656-28.21-28.211z"/><path d="m304.021 460.841h-185.89c-4.142 0-7.5 3.358-7.5 7.5s3.358 7.5 7.5 7.5h185.89c4.142 0 7.5-3.358 7.5-7.5s-3.357-7.5-7.5-7.5z"/><path d="m163.479 366.86c13.213 0 23.963 10.75 23.963 23.963 0 4.142 3.358 7.5 7.5 7.5h177.379c4.142 0 7.5-3.358 7.5-7.5 0-13.213 10.75-23.963 23.963-23.963 4.142 0 7.5-3.358 7.5-7.5v-199.304c0-4.142-3.358-7.5-7.5-7.5s-7.5 3.358-7.5 7.5v192.528c-15.48 3.031-27.708 15.259-30.739 30.739h-163.827c-3.031-15.48-15.259-27.709-30.739-30.739v-264.481c15.48-3.031 27.708-15.259 30.739-30.739h163.828c3.031 15.48 15.259 27.708 30.739 30.739v41.953c0 4.142 3.358 7.5 7.5 7.5s7.5-3.358 7.5-7.5v-48.729c0-4.142-3.358-7.5-7.5-7.5-13.213 0-23.963-10.75-23.963-23.963 0-4.142-3.358-7.5-7.5-7.5h-177.38c-4.142 0-7.5 3.358-7.5 7.5 0 13.213-10.75 23.963-23.963 23.963-4.142 0-7.5 3.358-7.5 7.5v278.033c0 4.142 3.358 7.5 7.5 7.5z"/><path d="m283.632 118.676c-51.633 0-93.64 42.006-93.64 93.639s42.006 93.639 93.64 93.639c51.633 0 93.639-42.006 93.639-93.639s-42.006-93.639-93.639-93.639zm0 172.279c-43.362 0-78.64-35.277-78.64-78.639s35.278-78.639 78.64-78.639 78.639 35.277 78.639 78.639-35.277 78.639-78.639 78.639z"/><path d="m290.127 141.306c-2.834-4.908-10.156-4.909-12.99 0l-17.251 29.88h-34.503c-5.658 0-9.334 6.335-6.495 11.25l17.251 29.88-17.251 29.88c-2.838 4.915.837 11.25 6.495 11.25h34.503l17.251 29.88c2.834 4.908 10.156 4.909 12.99 0l17.251-29.88h34.502c5.658 0 9.333-6.334 6.495-11.25l-17.251-29.88 17.251-29.88c2.838-4.915-.837-11.25-6.495-11.25h-34.502zm-6.495 18.75 6.426 11.13h-12.852zm15.086 26.13 15.086 26.13-15.086 26.13h-30.172l-15.086-26.13 15.086-26.13zm-60.344 0h12.852l-6.426 11.13zm0 52.259 6.426-11.13 6.426 11.13zm45.258 26.13-6.426-11.13h12.852zm45.259-26.13h-12.852l6.426-11.13zm0-52.259-6.426 11.13-6.426-11.13z"/></svg>