<svg height="512pt" viewBox="0 0 512 512" width="512pt" xmlns="http://www.w3.org/2000/svg"><path d="m248.5 472.25h15v15h-15zm0 0"/><path d="m403.605469 97.785156 10.605469-10.605468 10.609374 10.609374-10.609374 10.605469zm0 0"/><path d="m87.179688 414.203125 10.605468-10.605469 10.609375 10.605469-10.609375 10.609375zm0 0"/><path d="m472.25 248.5h15v15h-15zm0 0"/><path d="m24.75 248.5h15v15h-15zm0 0"/><path d="m403.601562 414.214844 10.609376-10.605469 10.605468 10.605469-10.605468 10.605468zm0 0"/><path d="m87.175781 97.792969 10.609375-10.609375 10.605469 10.609375-10.605469 10.605469zm0 0"/><path d="m248.5 24.75h15v15h-15zm0 0"/><path d="m444.15625 82.410156-11.019531 10.175782c41.179687 44.617187 63.863281 102.652343 63.863281 163.414062 0 132.886719-108.113281 241-241 241s-241-108.113281-241-241 108.113281-241 241-241c60.761719 0 118.796875 22.683594 163.414062 63.863281l10.175782-11.019531c-47.398438-43.75-109.046875-67.84375-173.589844-67.84375-141.492188 0-256 114.496094-256 256 0 141.492188 114.496094 256 256 256 141.492188 0 256-114.496094 256-256 0-64.542969-24.09375-126.191406-67.84375-173.589844zm0 0"/><path d="m256 48.5c-111.300781 0-201.84375 87.449219-207.242188 197.132812l14.980469.734376c5.046875-102.542969 89.5-182.867188 192.261719-182.867188 106.144531 0 192.5 86.355469 192.5 192.5s-86.355469 192.5-192.5 192.5c-102.761719 0-187.214844-80.324219-192.261719-182.867188l-14.980469.734376c5.394532 109.609374 95.878907 197.132812 207.242188 197.132812 114.414062 0 207.5-93.085938 207.5-207.5s-93.085938-207.5-207.5-207.5zm0 0"/><path d="m278.425781 266.289062c-8.652343-19.144531-8.664062-19.679687-22.480469-38.820312-13.710937 19.125-13.71875 19.636719-22.320312 38.8125 23.46875 2.363281 23.914062 2.105469 44.800781.007812zm0 0"/><path d="m304.421875 241.148438c-13.402344-28.957032-35.09375-52.644532-63.117187-68.824219-35.914063-20.734375-77.753907-26.242188-117.8125-15.507813l-23.675782 6.339844 6.339844 23.679688c9.316406 34.753906 30.558594 65.375 59.816406 86.222656l6.105469 4.351562 28.449219-39.921875-6.109375-4.355469c-12.121094-8.636718-22.292969-19.773437-29.839844-32.597656 20.027344.167969 39.613281 6.03125 56.609375 16.988282-21.664062 30.789062-30.863281 67.585937-27.238281 104.464843l14.929687-1.46875c-3.417968-34.785156 5.699219-70.496093 28.847656-100.125l4.71875-6.039062-6.140624-4.585938c-24.402344-18.230469-54.414063-26.625-84.511719-23.652343l-10.414063 1.03125 4.320313 9.53125c7.796875 17.191406 19.488281 32.316406 34.042969 44.125l-11.054688 15.519531c-23.335938-18.605469-40.277344-44.398438-48.039062-73.371094l-2.460938-9.1875 9.1875-2.460937c36.1875-9.695313 73.988281-4.722657 106.433594 14.011718 27.40625 15.824219 48.101562 39.585938 59.855468 68.71875l2.867188 7.117188 7.050781-3.03125c27.117188-11.671875 49.882813-32.863282 62.753907-61.4375l4.292968-9.523438-10.398437-1.019531c-18.691407-1.839844-37.550781.6875-54.980469 7.3125l-7.871094-17.355469c27.699219-10.792968 58.398438-12.523437 87.25-4.792968l9.1875 2.460937-2.460937 9.1875c-18.214844 67.980469-84.546875 112.414063-154.75 102.625l-7.582031-1.058594-.902344 7.601563c-3.589844 30.253906 4.140625 60.453125 21.777344 85.03125l6.097656 8.503906 6.09375-8.507812c10.988281-15.351563 18.246094-33.039063 21.191406-51.550782l18.96875 1.816406c-4.445312 29.515626-18.3125 57.082032-39.523438 78.292969l-6.726562 6.726563-6.726562-6.726563c-18.410157-18.410156-31.289063-41.367187-37.253907-66.394531l-14.589843 3.476562c6.605468 27.726563 20.867187 53.152344 41.238281 73.523438l17.332031 17.332031 17.332031-17.332031c25.441407-25.441406 41.339844-59.152344 44.765625-94.914062l.714844-7.46875-48.800781-4.671876-.714844 7.46875c-1.417969 14.816407-5.976563 29.195313-13.3125 42.144532-9.871094-17.433594-14.589844-37.339844-13.59375-57.542969 74.644531 6.601563 143.945313-41.699219 163.453125-114.492187l6.34375-23.679688-23.675781-6.339844c-34.625-9.28125-71.644531-6.246094-104.242188 8.53125l-6.832031 3.097656 20.246094 44.648438 6.832031-3.097656c13.488281-6.117188 28.148437-9.320313 42.964844-9.4375-10.132813 17.296875-24.976563 31.28125-43.058594 40.589844zm0 0"/><path d="m300.722656 433.828125-3.660156-14.546875c57.648438-14.503906 103.839844-58.980469 120.546875-116.070312l14.398437 4.214843c-18.195312 62.171875-68.5 110.605469-131.285156 126.402344zm133.921875-136.488281-14.613281-3.382813c1.074219-4.632812 1.957031-9.378906 2.632812-14.105469l14.847657 2.117188c-.734375 5.148438-1.699219 10.320312-2.867188 15.371094zm4.042969-25.730469-14.945312-1.265625c.402343-4.742188.605468-9.570312.605468-14.34375h15c0 5.195312-.222656 10.445312-.660156 15.609375zm0 0"/><path d="m470.894531 233.929688c-2.429687-24.089844-8.808593-47.351563-18.960937-69.128907l13.597656-6.335937c10.863281 23.308594 17.691406 48.191406 20.289062 73.960937zm-23.238281-77.789063c-2.230469-4.261719-4.632812-8.503906-7.144531-12.605469l12.792969-7.832031c2.6875 4.390625 5.261718 8.929687 7.644531 13.492187zm-12.375-20.730469c-2.683594-3.976562-5.546875-7.921875-8.511719-11.730468l11.839844-9.210938c3.167969 4.070312 6.230469 8.292969 9.105469 12.542969zm0 0"/></svg>