<svg id="Capa_1" enable-background="new 0 0 511.133 511.133" height="512" viewBox="0 0 511.133 511.133" width="512" xmlns="http://www.w3.org/2000/svg"><g><path d="m510.822 232.696c-1.202-6.407-5.737-11.784-11.889-14.097-.899-.358-1.892-.555-2.848-.555-.012 0-.025 0-.037 0l-4.538.029c-24.535.17-38.057.263-53.219-10.049-11.391-7.747-14.291-16.716-17.649-27.1-.474-1.465-.947-2.93-1.444-4.391-1.334-3.922-5.591-6.02-9.516-4.686-3.921 1.333-6.02 5.593-4.686 9.515.473 1.39.923 2.784 1.374 4.178 3.675 11.366 7.841 24.247 23.485 34.888 19.026 12.941 36.03 12.823 61.758 12.645l2.853-.018c.631.416 1.378 1.158 1.611 2.406.332 1.77-.907 3.658-2.82 4.298-22.651 7.572-58.633 3.806-78.572-8.224-14.501-8.749-26.672-22.735-33.392-38.372-10.969-25.521-33.769-41.772-61.312-43.87v-28.414c4.995.128 9.988.629 14.85 1.538 6.169 1.194 12.201 2.972 17.905 5.275 14.79 6.027 28.575 16.489 38.817 29.458 1.48 1.874 3.675 2.852 5.891 2.852 1.628 0 3.268-.527 4.644-1.615 3.251-2.567 3.805-7.283 1.237-10.534-11.821-14.969-27.777-27.062-44.951-34.061-6.617-2.672-13.579-4.725-20.739-6.111-5.808-1.086-11.737-1.693-17.653-1.823v-18.419c0-14.509-11.567-26.359-25.962-26.834v-27.281c0-13.795-11.304-25.018-25.198-25.018h-24.312c-13.895 0-25.199 11.223-25.199 25.018v27.259h-.526c-14.809 0-26.856 12.048-26.856 26.856v18.403c-6.18.091-12.375.706-18.48 1.848-7.113 1.377-14.075 3.43-20.714 6.111-24.172 9.851-45.408 29.595-56.809 52.817-2.376 4.84-3.932 9.652-5.437 14.304-3.358 10.385-6.257 19.354-17.65 27.103-15.161 10.311-28.67 10.218-53.218 10.049l-4.528-.029c-.985-.016-1.999.185-2.938.57-6.117 2.306-10.646 7.68-11.845 14.081-1.712 9.123 3.793 18.275 12.806 21.289 9.404 3.145 20.572 4.644 32.126 4.643 3.737 0 7.514-.165 11.285-.474l135.401 61.296v16.934c0 8.808 4.229 16.994 11.311 21.898 12.073 8.359 19.281 22.096 19.281 36.747s-7.208 28.389-19.281 36.747c-7.082 4.904-11.311 13.09-11.311 21.897v22.297c0 14.809 12.048 26.857 26.856 26.857h74.341c14.809 0 26.856-12.048 26.856-26.857v-22.297c0-8.808-4.229-16.994-11.311-21.897-12.073-8.359-19.281-22.096-19.281-36.747s7.208-28.388 19.281-36.747c7.082-4.904 11.311-13.09 11.311-21.898v-15.479l138.072-62.505c2.621.15 5.238.228 7.835.228 11.553 0 22.724-1.499 32.126-4.643 9.012-3.014 14.519-12.165 12.808-21.289zm-303.894-145.257c0-6.538 5.318-11.856 11.856-11.856h22.148c4.143 0 7.5-3.358 7.5-7.5s-3.357-7.5-7.5-7.5h-6.622v-27.259c0-5.524 4.575-10.018 10.199-10.018h24.311c5.623 0 10.198 4.494 10.198 10.018v27.259h-8.087c-4.143 0-7.5 3.358-7.5 7.5s3.357 7.5 7.5 7.5h22.192c6.538 0 11.856 5.319 11.856 11.856v88.321c0 3.887-1.813 7.463-4.85 9.565-16.119 11.16-25.742 29.507-25.742 49.08 0 19.572 9.623 37.92 25.742 49.079 3.037 2.103 4.85 5.679 4.85 9.565v18.18l-41.428 18.754v-183.643c9.02-3.151 15.511-11.739 15.511-21.82 0-10.092-12.9-30.392-16.853-36.373-1.389-2.101-3.739-3.364-6.257-3.364-2.519 0-4.868 1.264-6.257 3.364-3.953 5.982-16.853 26.282-16.853 36.373 0 10.155 6.586 18.794 15.709 21.888v182.211l-41.626-18.844v-16.725c0-3.887 1.813-7.463 4.85-9.565 16.119-11.16 25.742-29.507 25.742-49.08s-9.623-37.92-25.742-49.08c-3.037-2.103-4.85-5.678-4.85-9.565v-88.321zm94.619 357.867c2.168 2.133 3.435 5.136 3.435 8.368v5.393h-98.054v-5.393c0-3.232 1.267-6.234 3.435-8.368zm-45.592-312.676c-4.472 0-8.109-3.638-8.109-8.108.034-2.454 3.426-9.781 8.109-17.944 4.685 8.163 8.076 15.49 8.11 17.944-.001 4.471-3.639 8.108-8.11 8.108zm-238.081 107.129c-1.913-.64-3.152-2.527-2.819-4.298.234-1.251.983-1.993 1.606-2.406l2.858.018c25.73.178 42.731.295 61.757-12.645 15.646-10.642 19.812-23.525 23.486-34.891 1.403-4.339 2.729-8.437 4.629-12.309 9.825-20.012 28.145-37.035 48.981-45.527 5.726-2.312 11.758-4.09 17.881-5.275 5.156-.965 10.418-1.491 15.675-1.581v28.403c-27.558 1.847-51.116 18.382-62.09 43.915-6.721 15.637-18.892 29.623-33.392 38.372-19.943 12.03-55.923 15.796-78.572 8.224zm64.679 13.711c8.027-2.308 15.44-5.351 21.643-9.093 17.375-10.484 31.376-26.569 39.424-45.292 8.714-20.274 26.581-33.051 48.309-34.812v11.486c0 8.808 4.229 16.994 11.311 21.898 12.073 8.359 19.281 22.096 19.281 36.747s-7.208 28.388-19.281 36.747c-7.082 4.904-11.311 13.09-11.311 21.897v9.935zm129.225 92.479c-3.037-2.102-4.85-5.678-4.85-9.565v-10.144l41.626 18.844v85.222h-22.625c7.417-10.109 11.591-22.421 11.591-35.277 0-19.573-9.623-37.921-25.742-49.08zm81.348 141.878h-74.341c-6.538 0-11.856-5.319-11.856-11.857v-1.904h98.054v1.904c-.001 6.538-5.319 11.857-11.857 11.857zm11.856-151.443c0 3.887-1.813 7.463-4.85 9.565-16.119 11.16-25.742 29.507-25.742 49.08 0 12.855 4.174 25.168 11.591 35.277h-22.427v-83.625c.146-.141.299-.275.435-.428l40.993-18.557zm15-31.945v-11.39c0-8.808-4.229-16.994-11.311-21.898-12.073-8.359-19.281-22.096-19.281-36.747s7.208-28.389 19.281-36.747c7.082-4.904 11.311-13.09 11.311-21.898v-11.404c21.355 2.035 38.977 14.83 47.53 34.73 8.048 18.723 22.049 34.808 39.425 45.292 6.836 4.124 15.133 7.407 24.112 9.782z"/></g></svg>