<?xml version="1.0" encoding="iso-8859-1"?>
<!-- Generator: Adobe Illustrator 19.0.0, SVG Export Plug-In . SVG Version: 6.00 Build 0)  -->
<svg version="1.1" id="Capa_1" xmlns="http://www.w3.org/2000/svg" xmlns:xlink="http://www.w3.org/1999/xlink" x="0px" y="0px"
	 viewBox="0 0 512 512" style="enable-background:new 0 0 512 512;" xml:space="preserve">
<g>
	<g>
		<g>
			<rect x="224.71" y="138.49" width="15" height="15"/>
			<rect x="274.71" y="138.49" width="55.43" height="15"/>
			<rect x="249.71" y="138.49" width="15" height="15"/>
			<rect x="259.07" y="187.11" width="71.07" height="15"/>
			<rect x="291" y="235.73" width="39.14" height="15"/>
			<rect x="292.04" y="284.35" width="38.1" height="15"/>
			<rect x="422.74" y="126.5" width="15" height="15"/>
			<rect x="447.74" y="126.5" width="15" height="15"/>
			<rect x="397.74" y="126.5" width="15" height="15"/>
			<rect x="120.67" y="377" width="15" height="15"/>
			<rect x="145.67" y="377" width="15" height="15"/>
			<rect x="170.67" y="377" width="79.45" height="15"/>
			<rect x="236.27" y="27.493" width="15" height="15"/>
			<rect x="286.27" y="27.493" width="71.73" height="15"/>
			<rect x="261.27" y="27.493" width="15" height="15"/>
			<path d="M437.813,0h-250.25c-35.394,0-64.188,28.794-64.188,64.188v12.054h15v-4.554H171v-15h-32.054
				C142.569,33.112,162.99,15,187.563,15h209.055c-14.048,11.784-22.992,29.46-22.992,49.188v173.979H345v15h28.625v151.667h-57.958
				v15h57.958V445.5H345v15h26.957c-5.61,20.991-24.784,36.5-47.52,36.5c-27.122,0-49.188-22.065-49.188-49.188V345.099H10v102.713
				C10,483.206,38.794,512,74.188,512H324.5v-0.002c35.365-0.034,64.125-28.814,64.125-64.186V64.188
				C388.625,37.065,410.69,15,437.813,15c24.573,0,44.994,18.112,48.616,41.688h-60.193v15H487V81.5h-21.5v15H487v55.401h-85.875v15
				H502V64.188C502,28.794,473.206,0,437.813,0z M74.188,497C47.065,497,25,474.935,25,447.813V360.1h23.833V397h15v-36.901h18
				v18.567h15v-18.567H260.25v80.213h-70.436v15h70.877c1.95,16.675,10.311,31.419,22.562,41.688H74.188z"/>
			<path d="M33.762,121.93c10.936,31.252,31.651,76.187,68.239,112.775c36.589,36.588,81.523,57.304,112.775,68.24
				c27.988,9.793,49.902,13.667,57.22,14.786l35.417,35.417l10.607-10.606l-35.417-35.418c-1.119-7.319-4.993-29.233-14.786-57.219
				c-10.936-31.252-31.651-76.187-68.239-112.775c-36.589-36.589-81.523-57.305-112.775-68.24
				C52.99,57.057,28.02,53.861,26.974,53.731l-9.56-1.19l1.19,9.559C18.734,63.146,21.931,88.117,33.762,121.93z M80.357,82.596
				v25.774h15V88.161c22.164,8.811,46.885,21.329,69.955,38.936v54.915h15v-42.48c2.934,2.641,5.825,5.37,8.658,8.203
				c12.753,12.752,23.52,26.639,32.601,40.754v45.982h15v-19.697c14.187,28.09,22.343,54.861,26.786,73.104L99.525,124.044
				L88.918,134.65l163.857,163.858c-30.851-7.494-86.131-25.617-130.976-65.73h34.177v-15h-49.435
				c-10.087-10.905-18.836-22.491-26.41-34.242h19.275v-15h-28.29C48.47,128.12,38.754,88.394,35.22,70.339
				C45.01,72.248,61.17,75.974,80.357,82.596z"/>
			<rect x="123.37" y="270.07" width="15" height="62.53"/>
		</g>
	</g>
</g>
<g>
</g>
<g>
</g>
<g>
</g>
<g>
</g>
<g>
</g>
<g>
</g>
<g>
</g>
<g>
</g>
<g>
</g>
<g>
</g>
<g>
</g>
<g>
</g>
<g>
</g>
<g>
</g>
<g>
</g>
</svg>
