<svg id="Capa_1" enable-background="new 0 0 512 512" height="512" viewBox="0 0 512 512" width="512" xmlns="http://www.w3.org/2000/svg"><path d="m224 228.284v56.432l85.858-85.858c7.811-7.811 20.474-7.811 28.284 0s7.811 20.474 0 28.284l-114.142 114.142v70.716c0 11.046-8.954 20-20 20s-20-8.954-20-20v-312c0-11.046 8.954-20 20-20s20 8.954 20 20v71.716l85.858-85.858c7.811-7.811 20.474-7.811 28.284 0s7.811 20.474 0 28.284zm214 122.716c11.046 0 20-8.954 20-20v-251c0-44.112-35.888-80-80-80h-244c-44.112 0-80 35.888-80 80v352c0 44.112 35.888 80 80 80h244c44.112 0 80-35.888 80-80 0-11.046-8.954-20-20-20s-20 8.954-20 20c0 22.056-17.944 40-40 40h-244c-22.056 0-40-17.944-40-40v-352c0-22.056 17.944-40 40-40h244c22.056 0 40 17.944 40 40v251c0 11.046 8.954 20 20 20z"/></svg>