<svg id="Capa_1" enable-background="new 0 0 512 512" height="512" viewBox="0 0 512 512" width="512" xmlns="http://www.w3.org/2000/svg"><path d="m255.999 56.356c-28.948 0-52.5 23.552-52.5 52.5s23.551 52.5 52.5 52.5 52.5-23.552 52.5-52.5-23.551-52.5-52.5-52.5zm0 90c-20.677 0-37.5-16.822-37.5-37.5s16.822-37.5 37.5-37.5 37.5 16.822 37.5 37.5-16.822 37.5-37.5 37.5z"/><path d="m345.27 46.816c-2.362-3.401-7.034-4.246-10.438-1.884-3.402 2.362-4.246 7.036-1.883 10.438 10.828 15.596 16.551 34.005 16.551 53.237 0 4.136-3.364 7.5-7.5 7.5-4.135 0-7.5-3.364-7.5-7.5 0-21.368-8.415-41.354-23.693-56.277-15.256-14.9-35.406-22.812-56.704-22.31-20.127.475-39.136 8.672-53.527 23.081-14.393 14.41-22.581 33.447-23.054 53.605-.892 37.936 25.316 71.093 62.315 78.842 13.711 2.872 23.663 15.218 23.663 29.353v10.453h-15v-10.453c0-7.076-4.937-13.247-11.738-14.672-12.368-2.59-23.872-7.556-34.192-14.757-3.396-2.369-8.072-1.539-10.442 1.858-2.371 3.397-1.539 8.072 1.858 10.442 11.937 8.329 25.233 14.082 39.52 17.1-.005.005-.007.014-.006.028v274.6c0 12.406 10.093 22.5 22.5 22.5s22.5-10.094 22.5-22.5v-41.423c0-4.143-3.358-7.5-7.5-7.5s-7.5 3.357-7.5 7.5v41.423c0 4.136-3.364 7.5-7.5 7.5-4.135 0-7.5-3.364-7.5-7.5v-205.144h15v131.311c0 4.143 3.358 7.5 7.5 7.5s7.5-3.357 7.5-7.5v-200.764c0-21.195-14.966-39.715-35.587-44.035-29.923-6.267-51.117-33.102-50.395-63.808.383-16.288 7.014-31.686 18.671-43.358 11.651-11.666 27.017-18.302 43.271-18.685 17.223-.433 33.525 5.991 45.865 18.044 12.365 12.077 19.175 28.252 19.175 45.547 0 12.406 10.093 22.5 22.5 22.5s22.5-10.094 22.5-22.5c0-22.306-6.649-43.673-19.23-61.792zm-96.771 222.54v-29h15v29z"/><path d="m162.526 106.355c.564-24.026 10.308-46.704 27.437-63.854 17.13-17.152 39.783-26.91 63.779-27.476 21.563-.479 41.894 6.093 58.823 19.027 3.291 2.514 7.999 1.884 10.513-1.406 2.515-3.292 1.885-7.999-1.406-10.514-19.666-15.024-43.26-22.665-68.277-22.103-27.879.657-54.176 11.977-74.046 31.872-19.864 19.89-31.164 46.206-31.819 74.101-.573 24.357 7.161 48.484 21.776 67.935 1.474 1.962 3.724 2.995 6.002 2.995 1.568 0 3.149-.489 4.5-1.504 3.312-2.488 3.979-7.189 1.491-10.501-12.6-16.768-19.267-37.569-18.773-58.572z"/></svg>