<svg height="512pt" viewBox="0 -44 512 512" width="512pt" xmlns="http://www.w3.org/2000/svg"><path d="m281.667969 315.1875c-6.671875-15.21875-21.878907-25.878906-39.53125-25.878906-17.652344 0-32.863281 10.660156-39.53125 25.878906-6.667969-15.21875-21.878907-25.878906-39.53125-25.878906-23.785157 0-43.132813 19.351562-43.132813 43.132812 0 23.785156 19.347656 43.136719 43.132813 43.136719 17.652343 0 32.863281-10.660156 39.53125-25.878906 6.667969 15.21875 21.878906 25.878906 39.53125 25.878906 17.652343 0 32.863281-10.660156 39.53125-25.878906 6.667969 15.21875 21.878906 25.878906 39.53125 25.878906 23.78125 0 43.132812-19.351563 43.132812-43.136719 0-23.78125-19.351562-43.132812-43.132812-43.132812-17.652344 0-32.863281 10.660156-39.53125 25.878906zm-118.597657 45.386719c-15.511718 0-28.132812-12.621094-28.132812-28.132813 0-15.511718 12.621094-28.132812 28.132812-28.132812 15.515626 0 28.136719 12.621094 28.136719 28.132812 0 15.511719-12.621093 28.132813-28.136719 28.132813zm79.066407 0c-15.515625 0-28.136719-12.621094-28.136719-28.132813 0-15.511718 12.621094-28.132812 28.136719-28.132812 15.511719 0 28.132812 12.621094 28.132812 28.132812 0 15.511719-12.621093 28.132813-28.132812 28.132813zm107.195312-28.132813c0 15.511719-12.621093 28.132813-28.132812 28.132813-15.515625 0-28.136719-12.621094-28.136719-28.132813 0-15.511718 12.621094-28.132812 28.136719-28.132812 15.511719 0 28.132812 12.621094 28.132812 28.132812zm0 0"/><path d="m109.488281 218.105469 111.558594-108.363281v167.066406h15v-261.808594h10.808594v261.808594h15v-12.609375c21.148437-1.273438 41.332031-9.519531 57.367187-23.542969 20.585938-18.007812 32.660156-44.019531 33.128906-71.367188-.46875-27.347656-12.542968-53.359374-33.128906-71.367187-16.035156-14.023437-36.21875-22.265625-57.367187-23.539063v-74.382812h-40.808594v88.832031l-122.011719 118.515625zm199.859375-108.890625c17.339844 15.164062 27.535156 37.050781 28 60.074218-.464844 23.027344-10.660156 44.910157-28 60.078126-10.199218 8.917968-22.382812 15.066406-35.410156 18.011718 17.925781-21.914062 28.199219-49.433594 28.742188-78.089844-.542969-28.652343-10.816407-56.175781-28.742188-78.089843 13.027344 2.945312 25.210938 9.097656 35.410156 18.015625zm-47.492187-9.089844c16.042969 19.347656 25.273437 43.742188 25.824219 69.164062-.550782 25.421876-9.78125 49.816407-25.824219 69.164063zm0 0"/><path d="m193.546875 81.027344v-13.277344h15v-15h-15v-27.75h15v-15h-30.25v13.277344h-82.703125l29.65625 28.875-29.65625 28.875zm-61.046875-42.75h45.796875v27.75h-45.796875l14.25-13.875zm0 0"/><path d="m480.3125 211.195312v-7.140624l-22.746094-22.75h-103.734375v24.292968l14.777344 14.773438h16.761719v76.03125c0 9.667968-4.839844 18.609375-12.949219 23.910156l8.207031 12.554688c12.363282-8.082032 19.742188-21.714844 19.742188-36.464844v-91.03125h-25.550782l-5.988281-5.988282v-3.078124h82.523438l13.957031 13.960937v15.925781h31.6875v13.210938h-52.230469v15h52.230469v11.558594h-46.816406c-17.515625 0-31.019532 15.449218-28.695313 32.792968l6.390625 47.683594c2.097656 15.671875-2.667968 31.484375-13.078125 43.386719-10.414062 11.898437-25.453125 18.722656-41.265625 18.722656h-264.4375c-15.570312 0-30.457031-6.652344-40.84375-18.25-10.386718-11.597656-15.363281-27.125-13.652344-42.601563l11.753907-106.316406 1.726562-15.601562-8.132812-9.082032h-24.949219v15h17.335938l-1.074219 9.683594h-18.425781l-17.835938-17.835937v-20.472657h46.519531l22.378907 22.378907v70.953125c0 14.753906 7.378906 28.382812 19.742187 36.464844l8.207031-12.554688c-8.109375-5.300781-12.949218-14.238281-12.949218-23.910156v-77.167969l-31.164063-31.164063h-67.734375v41.6875l26.621094 26.621094h22.984375l-9.914063 89.671875c-2.179687 19.707031 4.160156 39.480469 17.386719 54.253907 13.230469 14.773437 32.1875 23.246093 52.019531 23.246093h264.4375c20.136719 0 39.292969-8.695312 52.550782-23.847656 13.261718-15.15625 19.332031-35.296875 16.65625-55.253906l-6.386719-47.683594c-1.121094-8.363281 5.394531-15.804687 13.824219-15.804687h61.820312v-69.765626zm0 0"/><path d="m163.070312 353.632812c-11.683593 0-21.191406-9.503906-21.191406-21.191406h15c0 3.414063 2.777344 6.191406 6.191406 6.191406 3.414063 0 6.195313-2.777343 6.195313-6.191406 0-3.414062-2.78125-6.191406-6.195313-6.191406v-15c11.6875 0 21.195313 9.507812 21.195313 21.191406 0 11.6875-9.507813 21.191406-21.195313 21.191406zm0 0"/><path d="m242.136719 353.632812c-11.6875 0-21.195313-9.503906-21.195313-21.191406h15c0 3.414063 2.78125 6.191406 6.195313 6.191406 3.414062 0 6.191406-2.777343 6.191406-6.191406 0-3.414062-2.777344-6.191406-6.191406-6.191406v-15c11.683593 0 21.191406 9.507812 21.191406 21.191406 0 11.6875-9.507813 21.191406-21.191406 21.191406zm0 0"/><path d="m321.199219 353.632812c-11.6875 0-21.191407-9.503906-21.191407-21.191406h15c0 3.414063 2.777344 6.191406 6.191407 6.191406 3.414062 0 6.191406-2.777343 6.191406-6.191406 0-3.414062-2.777344-6.191406-6.191406-6.191406v-15c11.683593 0 21.191406 9.507812 21.191406 21.191406 0 11.6875-9.507813 21.191406-21.191406 21.191406zm0 0"/><path d="m315.269531 216.664062-12.941406-7.585937c7.328125-12.507813 11.203125-26.84375 11.203125-41.457031 0-.902344-.015625-1.804688-.042969-2.707032l14.992188-.492187c.035156 1.066406.050781 2.132813.050781 3.199219 0 17.277344-4.585938 34.234375-13.261719 49.042968zm-2.589843-60.878906c-.65625-4.527344-1.695313-9.027344-3.09375-13.375l14.277343-4.59375c1.65625 5.140625 2.886719 10.464844 3.664063 15.820313zm-6.382813-21.914062c-1.875-4.160156-4.121094-8.191406-6.675781-11.980469l12.441406-8.382813c3.023438 4.488282 5.683594 9.265626 7.910156 14.195313zm0 0"/><path d="m373.535156 398.546875h-38.644531v-15h38.644531c8.730469 0 16.703125-3.617187 22.449219-10.183594.1875-.214843.375-.4375.566406-.667969l11.546875 9.574219c-.269531.324219-.539062.640625-.816406.957031-8.644531 9.882813-20.628906 15.320313-33.746094 15.320313zm40.914063-26.410156-13.660157-6.195313c1.648438-3.636718 2.519532-7.523437 2.585938-11.558594l14.996094.242188c-.097656 6.105469-1.417969 11.996094-3.921875 17.511719zm-11.914063-26.585938-1.992187-14.867187 14.867187-1.992188 1.992188 14.867188zm0 0"/></svg>